<svg xmlns="http://www.w3.org/2000/svg" version="1.1" xmlns:xlink="http://www.w3.org/1999/xlink" xmlns:svgjs="http://svgjs.com/svgjs" width="1920" height="1080" preserveAspectRatio="none" viewBox="0 0 1920 1080"><g mask="url(&quot;#SvgjsMask2680&quot;)" fill="none"><rect width="1920" height="1080" x="0" y="0" fill="url(#SvgjsLinearGradient2681)"></rect><path d="M1920 0L1424.4 0L1920 461.98z" fill="rgba(255, 255, 255, .1)"></path><path d="M1424.4 0L1920 461.98L1920 566.72L1148.3700000000001 0z" fill="rgba(255, 255, 255, .075)"></path><path d="M1148.37 0L1920 566.72L1920 855.3800000000001L1146.04 0z" fill="rgba(255, 255, 255, .05)"></path><path d="M1146.04 0L1920 855.3800000000001L1920 862.5300000000001L516.4699999999999 0z" fill="rgba(255, 255, 255, .025)"></path><path d="M0 1080L916.07 1080L0 823.61z" fill="rgba(0, 0, 0, .1)"></path><path d="M0 823.61L916.07 1080L1100.94 1080L0 801.12z" fill="rgba(0, 0, 0, .075)"></path><path d="M0 801.12L1100.94 1080L1467.47 1080L0 301.85z" fill="rgba(0, 0, 0, .05)"></path><path d="M0 301.85L1467.47 1080L1767.0700000000002 1080L0 87.62000000000003z" fill="rgba(0, 0, 0, .025)"></path></g><defs><mask id="SvgjsMask2680"><rect width="1920" height="1080" fill="#ffffff"></rect></mask><linearGradient x1="89.06%" y1="-19.44%" x2="10.94%" y2="119.44%" gradientUnits="userSpaceOnUse" id="SvgjsLinearGradient2681"><stop stop-color="rgba(25, 195, 102, 1)" offset="0"></stop><stop stop-color="rgba(0, 0, 0, 1)" offset="1"></stop></linearGradient></defs></svg>