<svg xmlns="http://www.w3.org/2000/svg" version="1.1" xmlns:xlink="http://www.w3.org/1999/xlink" xmlns:svgjs="http://svgjs.dev/svgjs" viewBox="0 0 800 800"><defs><linearGradient x1="50%" y1="0%" x2="50%" y2="100%" id="ffflurry-grad" gradientTransform="rotate(270)"><stop stop-color="hsl(220, 0%, 9%)" stop-opacity="1" offset="0%"></stop><stop stop-color="hsl(114, 60%, 13%)" stop-opacity="1" offset="45%"></stop><stop stop-color="hsl(149, 70%, 22%)" stop-opacity="1" offset="100%"></stop></linearGradient></defs><rect width="100%" height="100%" fill="hsl(220, 0%, 9%)"></rect><g fill="url(#ffflurry-grad)"><rect width="500" height="3" x="504" y="83.5" rx="1.5" transform="rotate(45, 754, 85)" opacity="0.81"></rect><rect width="454" height="3" x="-182" y="493.5" rx="1.5" transform="rotate(45, 45, 495)" opacity="0.10"></rect><rect width="614" height="3" x="268" y="58.5" rx="1.5" transform="rotate(45, 575, 60)" opacity="0.56"></rect><rect width="61" height="3" x="685.5" y="321.5" rx="1.5" transform="rotate(45, 716, 323)" opacity="0.31"></rect><rect width="577" height="3" x="239.5" y="504.5" rx="1.5" transform="rotate(45, 528, 506)" opacity="0.69"></rect><rect width="43" height="3" x="390.5" y="606.5" rx="1.5" transform="rotate(45, 412, 608)" opacity="0.98"></rect><rect width="414" height="3" x="-2" y="158.5" rx="1.5" transform="rotate(45, 205, 160)" opacity="0.52"></rect><rect width="55" height="3" x="668.5" y="566.5" rx="1.5" transform="rotate(45, 696, 568)" opacity="0.73"></rect><rect width="459" height="3" x="169.5" y="114.5" rx="1.5" transform="rotate(45, 399, 116)" opacity="0.80"></rect><rect width="485" height="3" x="259.5" y="194.5" rx="1.5" transform="rotate(45, 502, 196)" opacity="0.58"></rect><rect width="418" height="3" x="-54" y="396.5" rx="1.5" transform="rotate(45, 155, 398)" opacity="0.36"></rect><rect width="144" height="3" x="541" y="395.5" rx="1.5" transform="rotate(45, 613, 397)" opacity="0.89"></rect><rect width="306" height="3" x="89" y="702.5" rx="1.5" transform="rotate(45, 242, 704)" opacity="0.08"></rect><rect width="254" height="3" x="353" y="396.5" rx="1.5" transform="rotate(45, 480, 398)" opacity="0.11"></rect><rect width="445" height="3" x="544.5" y="519.5" rx="1.5" transform="rotate(45, 767, 521)" opacity="0.89"></rect><rect width="265" height="3" x="400.5" y="609.5" rx="1.5" transform="rotate(45, 533, 611)" opacity="0.59"></rect><rect width="245" height="3" x="-0.5" y="458.5" rx="1.5" transform="rotate(45, 122, 460)" opacity="0.27"></rect><rect width="481" height="3" x="71.5" y="48.5" rx="1.5" transform="rotate(45, 312, 50)" opacity="0.83"></rect><rect width="111" height="3" x="471.5" y="347.5" rx="1.5" transform="rotate(45, 527, 349)" opacity="0.88"></rect><rect width="778" height="3" x="347" y="218.5" rx="1.5" transform="rotate(45, 736, 220)" opacity="0.41"></rect><rect width="129" height="3" x="-8.5" y="760.5" rx="1.5" transform="rotate(45, 56, 762)" opacity="0.15"></rect><rect width="546" height="3" x="144" y="261.5" rx="1.5" transform="rotate(45, 417, 263)" opacity="0.18"></rect><rect width="181" height="3" x="392.5" y="296.5" rx="1.5" transform="rotate(45, 483, 298)" opacity="0.86"></rect><rect width="602" height="3" x="49" y="214.5" rx="1.5" transform="rotate(45, 350, 216)" opacity="0.55"></rect><rect width="363" height="3" x="244.5" y="537.5" rx="1.5" transform="rotate(45, 426, 539)" opacity="0.37"></rect><rect width="282" height="3" x="146" y="159.5" rx="1.5" transform="rotate(45, 287, 161)" opacity="0.37"></rect><rect width="286" height="3" x="335" y="671.5" rx="1.5" transform="rotate(45, 478, 673)" opacity="0.58"></rect><rect width="286" height="3" x="92" y="586.5" rx="1.5" transform="rotate(45, 235, 588)" opacity="0.90"></rect><rect width="35" height="3" x="330.5" y="438.5" rx="1.5" transform="rotate(45, 348, 440)" opacity="0.78"></rect><rect width="95" height="3" x="600.5" y="303.5" rx="1.5" transform="rotate(45, 648, 305)" opacity="0.67"></rect><rect width="135" height="3" x="574.5" y="470.5" rx="1.5" transform="rotate(45, 642, 472)" opacity="0.97"></rect><rect width="426" height="3" x="134" y="508.5" rx="1.5" transform="rotate(45, 347, 510)" opacity="0.72"></rect><rect width="384" height="3" x="14" y="465.5" rx="1.5" transform="rotate(45, 206, 467)" opacity="0.55"></rect><rect width="460" height="3" x="277" y="120.5" rx="1.5" transform="rotate(45, 507, 122)" opacity="0.33"></rect><rect width="217" height="3" x="566.5" y="389.5" rx="1.5" transform="rotate(45, 675, 391)" opacity="0.38"></rect><rect width="247" height="3" x="-34.5" y="32.5" rx="1.5" transform="rotate(45, 89, 34)" opacity="0.26"></rect><rect width="307" height="3" x="78.5" y="334.5" rx="1.5" transform="rotate(45, 232, 336)" opacity="0.42"></rect><rect width="57" height="3" x="304.5" y="756.5" rx="1.5" transform="rotate(45, 333, 758)" opacity="0.45"></rect><rect width="190" height="3" x="107" y="57.5" rx="1.5" transform="rotate(45, 202, 59)" opacity="0.10"></rect><rect width="385" height="3" x="543.5" y="429.5" rx="1.5" transform="rotate(45, 736, 431)" opacity="0.53"></rect><rect width="112" height="3" x="-28" y="238.5" rx="1.5" transform="rotate(45, 28, 240)" opacity="0.16"></rect><rect width="68" height="3" x="310" y="595.5" rx="1.5" transform="rotate(45, 344, 597)" opacity="0.38"></rect><rect width="557" height="3" x="391.5" y="37.5" rx="1.5" transform="rotate(45, 670, 39)" opacity="0.97"></rect><rect width="45" height="3" x="423.5" y="758.5" rx="1.5" transform="rotate(45, 446, 760)" opacity="0.38"></rect><rect width="314" height="3" x="62" y="768.5" rx="1.5" transform="rotate(45, 219, 770)" opacity="0.29"></rect><rect width="297" height="3" x="155.5" y="662.5" rx="1.5" transform="rotate(45, 304, 664)" opacity="0.35"></rect><rect width="430" height="3" x="15" y="402.5" rx="1.5" transform="rotate(45, 230, 404)" opacity="0.10"></rect><rect width="270" height="3" x="283" y="410.5" rx="1.5" transform="rotate(45, 418, 412)" opacity="0.73"></rect><rect width="664" height="3" x="-286" y="372.5" rx="1.5" transform="rotate(45, 46, 374)" opacity="0.33"></rect><rect width="253" height="3" x="426.5" y="427.5" rx="1.5" transform="rotate(45, 553, 429)" opacity="0.49"></rect><rect width="478" height="3" x="-166" y="592.5" rx="1.5" transform="rotate(45, 73, 594)" opacity="0.50"></rect><rect width="208" height="3" x="620" y="704.5" rx="1.5" transform="rotate(45, 724, 706)" opacity="0.52"></rect><rect width="175" height="3" x="82.5" y="241.5" rx="1.5" transform="rotate(45, 170, 243)" opacity="0.86"></rect><rect width="488" height="3" x="-143" y="194.5" rx="1.5" transform="rotate(45, 101, 196)" opacity="0.82"></rect><rect width="390" height="3" x="-109" y="278.5" rx="1.5" transform="rotate(45, 86, 280)" opacity="0.67"></rect><rect width="187" height="3" x="485.5" y="325.5" rx="1.5" transform="rotate(45, 579, 327)" opacity="0.50"></rect><rect width="214" height="3" x="64" y="639.5" rx="1.5" transform="rotate(45, 171, 641)" opacity="0.66"></rect><rect width="184" height="3" x="371" y="34.5" rx="1.5" transform="rotate(45, 463, 36)" opacity="0.47"></rect><rect width="98" height="3" x="243" y="399.5" rx="1.5" transform="rotate(45, 292, 401)" opacity="0.30"></rect><rect width="445" height="3" x="360.5" y="735.5" rx="1.5" transform="rotate(45, 583, 737)" opacity="0.99"></rect><rect width="547" height="3" x="-238.5" y="665.5" rx="1.5" transform="rotate(45, 35, 667)" opacity="0.31"></rect><rect width="417" height="3" x="398.5" y="568.5" rx="1.5" transform="rotate(45, 607, 570)" opacity="0.95"></rect><rect width="423" height="3" x="81.5" y="560.5" rx="1.5" transform="rotate(45, 293, 562)" opacity="0.19"></rect><rect width="252" height="3" x="5" y="720.5" rx="1.5" transform="rotate(45, 131, 722)" opacity="0.08"></rect><rect width="261" height="3" x="-96.5" y="106.5" rx="1.5" transform="rotate(45, 34, 108)" opacity="0.71"></rect><rect width="501" height="3" x="-3.5" y="257.5" rx="1.5" transform="rotate(45, 247, 259)" opacity="0.51"></rect><rect width="552" height="3" x="-135" y="328.5" rx="1.5" transform="rotate(45, 141, 330)" opacity="0.17"></rect><rect width="279" height="3" x="635.5" y="337.5" rx="1.5" transform="rotate(45, 775, 339)" opacity="0.90"></rect><rect width="66" height="3" x="348" y="358.5" rx="1.5" transform="rotate(45, 381, 360)" opacity="0.23"></rect><rect width="279" height="3" x="307.5" y="473.5" rx="1.5" transform="rotate(45, 447, 475)" opacity="0.18"></rect><rect width="485" height="3" x="-80.5" y="538.5" rx="1.5" transform="rotate(45, 162, 540)" opacity="0.80"></rect><rect width="116" height="3" x="528" y="238.5" rx="1.5" transform="rotate(45, 586, 240)" opacity="0.42"></rect><rect width="557" height="3" x="-156.5" y="122.5" rx="1.5" transform="rotate(45, 122, 124)" opacity="0.22"></rect><rect width="93" height="3" x="222.5" y="488.5" rx="1.5" transform="rotate(45, 269, 490)" opacity="0.59"></rect><rect width="132" height="3" x="577" y="150.5" rx="1.5" transform="rotate(45, 643, 152)" opacity="0.62"></rect><rect width="80" height="3" x="283" y="309.5" rx="1.5" transform="rotate(45, 323, 311)" opacity="0.50"></rect><rect width="299" height="3" x="238.5" y="685.5" rx="1.5" transform="rotate(45, 388, 687)" opacity="0.13"></rect></g></svg>