<svg id="visual" viewBox="0 0 1920 1080" width="1920" height="1080" xmlns="http://www.w3.org/2000/svg" xmlns:xlink="http://www.w3.org/1999/xlink" version="1.1"><rect x="0" y="0" width="1920" height="1080" fill="#191919"></rect><path d="M0 548L192 563L384 473L576 467L768 516L960 512L1152 465L1344 474L1536 508L1728 596L1920 438L1920 1081L1728 1081L1536 1081L1344 1081L1152 1081L960 1081L768 1081L576 1081L384 1081L192 1081L0 1081Z" fill="#187b32"></path><path d="M0 662L192 579L384 594L576 584L768 548L960 558L1152 531L1344 642L1536 539L1728 684L1920 652L1920 1081L1728 1081L1536 1081L1344 1081L1152 1081L960 1081L768 1081L576 1081L384 1081L192 1081L0 1081Z" fill="#17742f"></path><path d="M0 620L192 595L384 739L576 662L768 725L960 700L1152 693L1344 608L1536 633L1728 672L1920 631L1920 1081L1728 1081L1536 1081L1344 1081L1152 1081L960 1081L768 1081L576 1081L384 1081L192 1081L0 1081Z" fill="#166d2d"></path><path d="M0 733L192 676L384 709L576 754L768 622L960 694L1152 780L1344 777L1536 745L1728 667L1920 644L1920 1081L1728 1081L1536 1081L1344 1081L1152 1081L960 1081L768 1081L576 1081L384 1081L192 1081L0 1081Z" fill="#15672a"></path><path d="M0 722L192 740L384 750L576 694L768 806L960 689L1152 715L1344 821L1536 727L1728 799L1920 731L1920 1081L1728 1081L1536 1081L1344 1081L1152 1081L960 1081L768 1081L576 1081L384 1081L192 1081L0 1081Z" fill="#146027"></path><path d="M0 764L192 807L384 793L576 872L768 852L960 865L1152 809L1344 767L1536 757L1728 797L1920 870L1920 1081L1728 1081L1536 1081L1344 1081L1152 1081L960 1081L768 1081L576 1081L384 1081L192 1081L0 1081Z" fill="#145a25"></path><path d="M0 838L192 844L384 878L576 897L768 898L960 877L1152 863L1344 867L1536 888L1728 843L1920 798L1920 1081L1728 1081L1536 1081L1344 1081L1152 1081L960 1081L768 1081L576 1081L384 1081L192 1081L0 1081Z" fill="#135322"></path><path d="M0 942L192 915L384 867L576 866L768 890L960 901L1152 864L1344 868L1536 894L1728 860L1920 900L1920 1081L1728 1081L1536 1081L1344 1081L1152 1081L960 1081L768 1081L576 1081L384 1081L192 1081L0 1081Z" fill="#124d20"></path><path d="M0 922L192 987L384 945L576 947L768 963L960 936L1152 990L1344 938L1536 988L1728 926L1920 991L1920 1081L1728 1081L1536 1081L1344 1081L1152 1081L960 1081L768 1081L576 1081L384 1081L192 1081L0 1081Z" fill="#11471d"></path><path d="M0 986L192 1000L384 998L576 985L768 992L960 1043L1152 996L1344 1040L1536 1025L1728 1033L1920 993L1920 1081L1728 1081L1536 1081L1344 1081L1152 1081L960 1081L768 1081L576 1081L384 1081L192 1081L0 1081Z" fill="#10411b"></path></svg>