<svg id="visual" viewBox="0 0 1920 1080" width="1920" height="1080" xmlns="http://www.w3.org/2000/svg" xmlns:xlink="http://www.w3.org/1999/xlink" version="1.1"><rect x="0" y="0" width="1920" height="1080" fill="#131313"></rect><path d="M0 501L320 437L640 495L960 553L1280 590L1600 523L1920 557L1920 1081L1600 1081L1280 1081L960 1081L640 1081L320 1081L0 1081Z" fill="#1c922c"></path><path d="M0 589L320 537L640 577L960 510L1280 642L1600 658L1920 575L1920 1081L1600 1081L1280 1081L960 1081L640 1081L320 1081L0 1081Z" fill="#1b8b2b"></path><path d="M0 738L320 752L640 599L960 697L1280 622L1600 605L1920 704L1920 1081L1600 1081L1280 1081L960 1081L640 1081L320 1081L0 1081Z" fill="#1a832a"></path><path d="M0 773L320 766L640 711L960 641L1280 675L1600 746L1920 766L1920 1081L1600 1081L1280 1081L960 1081L640 1081L320 1081L0 1081Z" fill="#197c29"></path><path d="M0 831L320 836L640 843L960 735L1280 766L1600 847L1920 830L1920 1081L1600 1081L1280 1081L960 1081L640 1081L320 1081L0 1081Z" fill="#187528"></path><path d="M0 777L320 805L640 774L960 799L1280 771L1600 828L1920 836L1920 1081L1600 1081L1280 1081L960 1081L640 1081L320 1081L0 1081Z" fill="#176e27"></path><path d="M0 946L320 904L640 889L960 931L1280 839L1600 872L1920 906L1920 1081L1600 1081L1280 1081L960 1081L640 1081L320 1081L0 1081Z" fill="#176725"></path><path d="M0 931L320 956L640 967L960 967L1280 907L1600 974L1920 956L1920 1081L1600 1081L1280 1081L960 1081L640 1081L320 1081L0 1081Z" fill="#176124"></path><path d="M0 1027L320 997L640 1039L960 1026L1280 991L1600 980L1920 988L1920 1081L1600 1081L1280 1081L960 1081L640 1081L320 1081L0 1081Z" fill="#165a22"></path></svg>