<svg xmlns="http://www.w3.org/2000/svg" version="1.1" xmlns:xlink="http://www.w3.org/1999/xlink" xmlns:svgjs="http://svgjs.com/svgjs" width="1920" height="1080" preserveAspectRatio="none" viewBox="0 0 1920 1080"><g mask="url(&quot;#SvgjsMask1036&quot;)" fill="none"><rect width="1920" height="1080" x="0" y="0" fill="rgba(16, 16, 16, 1)"></rect><path d="M120 1080L1200 0L1488 0L408 1080z" fill="url(#SvgjsLinearGradient1037)"></path><path d="M634.6 1080L1714.6 0L2611.6 0L1531.6 1080z" fill="url(#SvgjsLinearGradient1037)"></path><path d="M1907 1080L827 0L174.5 0L1254.5 1080z" fill="url(#SvgjsLinearGradient1038)"></path><path d="M1239.4 1080L159.4000000000001 0L-542.5999999999999 0L537.4000000000001 1080z" fill="url(#SvgjsLinearGradient1038)"></path><path d="M1202.4323935337266 1080L1920 362.43239353372655L1920 1080z" fill="url(#SvgjsLinearGradient1037)"></path><path d="M0 1080L717.5676064662734 1080L 0 362.43239353372655z" fill="url(#SvgjsLinearGradient1038)"></path></g><defs><mask id="SvgjsMask1036"><rect width="1920" height="1080" fill="#ffffff"></rect></mask><linearGradient x1="0%" y1="100%" x2="100%" y2="0%" id="SvgjsLinearGradient1037"><stop stop-color="rgba(25, 187, 74, 1)" offset="0"></stop><stop stop-opacity="0" stop-color="rgba(25, 187, 74, 1)" offset="0.66"></stop></linearGradient><linearGradient x1="100%" y1="100%" x2="0%" y2="0%" id="SvgjsLinearGradient1038"><stop stop-color="rgba(25, 187, 74, 1)" offset="0"></stop><stop stop-opacity="0" stop-color="rgba(25, 187, 74, 1)" offset="0.66"></stop></linearGradient></defs></svg>